<svg xmlns="http://www.w3.org/2000/svg" viewBox="0 0 32 32" fill="none">
  <rect width="32" height="32" rx="6" fill="#171717"/>
  <path d="M8 11C8 11 8 8 16 5.5C24 8 24 11 24 11V17.5C24 22.5 20.5 25.8 16 27C11.5 25.8 8 22.5 8 17.5V11Z" fill="#ffffff" fill-opacity="0.1" stroke="#ffffff" stroke-width="1.2"/>
  <path d="M16 10V22" stroke="#ffffff" stroke-width="1.8" stroke-linecap="round"/>
  <path d="M12 13.5C12 11.567 13.567 10 15.5 10" stroke="#ffffff" stroke-width="1.8" stroke-linecap="round" fill="none"/>
  <path d="M12 18.5C12 20.433 13.567 22 15.5 22" stroke="#ffffff" stroke-width="1.8" stroke-linecap="round" fill="none"/>
  <path d="M16 10H18.5C19.88 10 21 11.12 21 12.5C21 13.88 19.88 15.5 18.5 15.5H16" stroke="#ffffff" stroke-width="1.8" stroke-linecap="round" stroke-linejoin="round" fill="none"/>
  <path d="M16 16.5H19C20.38 16.5 21.5 17.62 21.5 19C21.5 20.38 20.38 22 19 22H16" stroke="#ffffff" stroke-width="1.8" stroke-linecap="round" stroke-linejoin="round" fill="none"/>
</svg>
